HIERARCHY
ROOT Hips
{
	OFFSET	0.00	0.00	0.00
	CHANNELS 6 Xposition Yposition Zposition Zrotation Xrotation Yrotation
	JOINT LeftUpLeg
	{
		OFFSET	 3.43	 0.00	 0.00
		CHANNELS 3 Zrotation Xrotation Yrotation
		JOINT LeftLowLeg
		{
			OFFSET	 0.00	-18.47	 0.00
			CHANNELS 3 Zrotation Xrotation Yrotation
			JOINT LeftFoot
			{
				OFFSET	 0.00	-17.95	 0.00
				CHANNELS 3 Zrotation Xrotation Yrotation
				End Site 
				{
					OFFSET	 0.00	-3.12	 0.00
				}
			}
		}
	}
	JOINT RightUpLeg
	{
		OFFSET	-3.43	 0.00	 0.00
		CHANNELS 3 Zrotation Xrotation Yrotation
		JOINT RightLowLeg
		{
			OFFSET	 0.00	-18.81	 0.00
			CHANNELS 3 Zrotation Xrotation Yrotation
			JOINT RightFoot
			{
				OFFSET	 0.00	-17.57	 0.00
				CHANNELS 3 Zrotation Xrotation Yrotation
				End Site 
				{
					OFFSET	 0.00	-3.25	 0.00
				}
			}
		}
	}
	JOINT Chest
	{
		OFFSET	 0.00	 4.57	 0.00
		CHANNELS 3 Zrotation Xrotation Yrotation
		JOINT LeftCollar
		{
			OFFSET	 1.06	 15.33	 1.76
			CHANNELS 3 Zrotation Xrotation Yrotation
			JOINT LeftUpArm
			{
				OFFSET	 5.81	 0.00	 0.00
				CHANNELS 3 Zrotation Xrotation Yrotation
				JOINT LeftLowArm
				{
					OFFSET	 0.00	-12.08	 0.00
					CHANNELS 3 Zrotation Xrotation Yrotation
					JOINT LeftHand
					{
						OFFSET	 0.00	-9.82	 0.00
						CHANNELS 3 Zrotation Xrotation Yrotation
						End Site 
						{
							OFFSET	 0.00	-7.37	 0.00
						}
					}
				}
			}
		}
		JOINT RightCollar
		{
			OFFSET	-1.06	 15.33	 1.76
			CHANNELS 3 Zrotation Xrotation Yrotation
			JOINT RightUpArm
			{
				OFFSET	-6.06	 0.00	 0.00
				CHANNELS 3 Zrotation Xrotation Yrotation
				JOINT RightLowArm
				{
					OFFSET	 0.00	-11.90	 0.00
					CHANNELS 3 Zrotation Xrotation Yrotation
					JOINT RightHand
					{
						OFFSET	 0.00	-9.52	 0.00
						CHANNELS 3 Zrotation Xrotation Yrotation
						End Site 
						{
							OFFSET	 0.00	-7.14	 0.00
						}
					}
				}
			}
		}
		JOINT Neck
		{
			OFFSET	 0.00	 17.62	 0.00
			CHANNELS 3 Zrotation Xrotation Yrotation
			JOINT Head
			{
				OFFSET	 0.00	 5.19	 0.00
				CHANNELS 3 Zrotation Xrotation Yrotation
				End Site 
				{
					OFFSET	 0.00	 4.14	 0.00
				}
			}
		}
	}
}

MOTION
Frames: 21
Frame Time: 0.03
5.09 -6.90 -56.09 8.47 -1.28 13.89 25.34 -21.87 16.75 3.07 42.33 -2.72 -14.23 -17.05 2.02 -34.99 -44.04 -17.38 -6.17 33.17 7.89 21.26 10.91 4.90 29.73 47.62 -27.22 0 0 0 6.62 -37.46 -8.82 -20.27 -25.94 -14.19 37.93 -22.07 -50.88 0 0 0 -35.98 -14.44 -54.75 14.73 -36.63 7.97 -15.51 -8.50 9.34 0 0 0 -9.54 -16.52 -5.58 
5.80 -5.93 -56.51 8.41 1.83 9.56 24.30 -23.78 16.78 2.80 41.26 -2.74 -14.57 -17.65 2.28 -33.47 -46.48 -18.07 -6.91 34.30 8.73 19.81 9.75 4.35 29.09 46.56 -25.58 0 0 0 11.75 -36.88 -3.54 -20.63 -27.01 -14.39 38.40 -23.54 -46.94 0 0 0 -41.39 -16.60 -59.74 21.01 -43.10 13.73 -17.70 -10.92 19.35 0 0 0 -11.69 -17.79 -3.88 
6.23 -5.15 -56.95 8.48 5.41 5.82 23.75 -26.70 16.57 2.89 40.21 -3.02 -16.58 -18.23 1.29 -33.52 -47.39 -19.00 -7.53 37.53 9.97 17.84 7.24 0.83 27.88 45.52 -23.14 0 0 0 16.48 -35.77 2.09 -20.89 -27.75 -14.30 39.15 -24.54 -42.29 0 0 0 -47.07 -19.40 -62.69 26.11 -46.76 18.82 -20.92 -16.47 28.81 0 0 0 -13.42 -19.73 -3.18 
6.50 -4.47 -57.35 8.74 8.97 2.22 23.64 -29.68 17.06 3.06 39.47 -3.26 -19.03 -18.42 -0.53 -34.91 -46.82 -21.47 -8.99 40.70 10.90 17.53 3.44 0.47 25.91 44.86 -19.58 0 0 0 20.43 -34.37 7.07 -21.20 -28.23 -14.36 39.81 -24.97 -38.31 0 0 0 -52.97 -23.54 -64.00 28.10 -47.04 21.51 -22.68 -19.36 37.47 0 0 0 -14.69 -21.92 -3.38 
6.67 -4.07 -57.69 9.28 11.77 -1.29 24.21 -31.99 18.10 2.97 38.74 -3.73 -21.83 -18.32 -2.62 -36.16 -45.24 -23.75 -10.53 44.43 11.09 18.60 -2.26 2.46 23.22 44.51 -15.04 0 0 0 23.48 -32.61 10.80 -21.30 -28.43 -14.32 39.48 -24.69 -35.84 0 0 0 -58.49 -28.16 -63.70 25.86 -45.35 19.93 -23.92 -19.16 44.88 0 0 0 -15.77 -23.64 -4.39 
6.69 -3.87 -58.04 9.90 13.71 -4.28 24.71 -33.66 17.97 2.98 38.37 -3.28 -24.96 -18.02 -4.92 -36.76 -42.73 -26.71 -13.02 47.83 12.84 19.72 -7.78 4.58 20.49 44.46 -10.54 0 0 0 25.70 -30.9 13.46 -21.21 -28.17 -14.02 39.28 -24.19 -33.23 0 0 0 -62.81 -32.32 -63.53 22.20 -41.29 17.23 -25.75 -18.69 48.29 0 0 0 -16.69 -25.05 -5.88 
6.45 -3.90 -58.31 10.07 14.10 -6.07 25.13 -34.09 15.95 3.46 38.11 -3.80 -27.70 -18.10 -5.59 -36.29 -38.94 -28.82 -15.60 50.35 14.88 20.06 -12.37 6.91 18.16 45.11 -6.58 0 0 0 26.76 -29.12 14.48 -20.47 -27.41 -13.48 39.31 -23.59 -30.62 0 0 0 -64.94 -35.14 -62.09 17.19 -36.50 13.22 -27.87 -19.55 47.45 0 0 0 -17.11 -25.89 -7.81 
6.09 -4.11 -58.53 9.99 13.76 -7.41 26.14 -33.88 14.81 3.80 38.21 -3.59 -28.74 -17.12 -4.66 -35.97 -35.91 -27.95 -15.26 51.89 14.68 20.21 -17.73 7.85 15.60 45.92 -3.25 0 0 0 27.37 -27.02 15.56 -19.76 -26.52 -12.99 39.10 -22.65 -28.57 0 0 0 -65.58 -37.39 -60.87 13.03 -31.59 9.90 -29.14 -20.79 43.91 0 0 0 -16.74 -26.23 -9.09 
5.65 -4.19 -58.69 9.87 13.74 -8.60 27.54 -34.00 15.12 4.19 38.70 -3.50 -27.26 -15.35 -1.03 -35.16 -32.88 -26.86 -13.64 52.05 13.22 20.93 -22.86 8.60 12.83 46.07 -0.43 0 0 0 27.37 -23.89 16.47 -19.15 -25.60 -12.51 38.44 -21.94 -26.91 0 0 0 -64.76 -38.78 -59.82 10.41 -28.25 7.65 -30.18 -21.44 39.34 0 0 0 -16.16 -26.39 -9.71 
5.29 -4.24 -58.79 9.37 13.41 -9.48 28.81 -33.82 16.35 4.34 39.35 -3.11 -24.75 -13.21 1.99 -33.58 -31.07 -27.07 -12.11 50.52 11.49 24.15 -26.20 12.97 11.00 46.30 1.05 0 0 0 26.85 -20.79 16.51 -18.56 -24.84 -12.14 37.92 -21.72 -25.61 0 0 0 -63.51 -39.16 -59.94 9.70 -27.13 6.52 -28.41 -18.52 34.88 0 0 0 -15.48 -26.34 -9.30 
4.77 -3.99 -58.82 8.18 13.35 -9.74 30.04 -34.21 17.66 4.26 39.74 -2.66 -23.12 -10.64 3.71 -31.47 -30.46 -27.59 -10.59 49.77 10.34 24.98 -26.30 15.96 10.50 46.47 1.32 0 0 0 25.88 -17.45 16.01 -17.95 -24.27 -11.69 37.23 -21.73 -24.18 0 0 0 -61.40 -38.82 -61.23 11.08 -29.76 7.28 -26.59 -16.56 31.53 0 0 0 -14.62 -26.36 -8.23 
4.16 -3.64 -58.85 6.51 13.46 -9.30 31.18 -35.60 18.42 4.07 40.00 -2.22 -23.42 -8.38 3.89 -29.72 -30.53 -29.42 -10.48 49.31 11.33 23.43 -23.02 16.02 11.25 46.57 0.34 0 0 0 24.07 -14.24 15.32 -17.41 -23.88 -11.32 36.47 -22.23 -22.68 0 0 0 -59.69 -38.20 -64.11 14.51 -34.91 10.04 -23.75 -15.10 29.76 0 0 0 -13.56 -26.38 -6.57 
3.55 -3.27 -58.82 4.78 13.76 -8.46 32.43 -38.00 19.99 3.82 40.10 -2.19 -23.38 -5.60 3.78 -28.82 -30.21 -30.32 -8.93 48.96 10.53 21.05 -20.89 14.08 12.56 46.27 -1.28 0 0 0 22.09 -11.09 14.78 -17.06 -23.72 -11.09 35.71 -22.94 -21.63 0 0 0 -58.84 -37.83 -67.33 19.04 -40.59 13.63 -19.73 -13.55 30.50 0 0 0 -12.53 -26.13 -4.68 
2.91 -2.96 -58.79 3.36 14.48 -7.33 34.00 -41.71 23.15 2.98 40.18 -1.17 -22.77 -1.24 2.20 -29.19 -29.54 -30.65 -6.99 47.51 8.58 20.27 -19.61 13.11 13.52 45.23 -2.70 0 0 0 20.28 -8.64 14.57 -16.98 -23.62 -10.95 34.58 -23.45 -21.22 0 0 0 -58.49 -37.62 -70.14 25.23 -45.64 18.96 -15.79 -10.96 33.58 0 0 0 -11.75 -25.57 -2.91 
2.31 -2.70 -58.74 1.67 15.23 -6.15 36.28 -45.63 28.00 2.79 40.17 -1.23 -22.73 2.97 -0.67 -30.19 -28.90 -31.34 -5.42 45.64 7.09 21.03 -17.03 13.13 14.15 44.41 -2.98 0 0 0 18.84 -6.87 14.19 -17.06 -23.69 -10.85 33.49 -23.76 -20.42 0 0 0 -58.96 -37.52 -71.94 30.58 -49.49 23.30 -11.72 -7.68 37.75 0 0 0 -11.23 -25.23 -1.94 
1.68 -2.71 -58.74 -0.35 15.36 -4.87 38.49 -49.13 32.34 2.81 39.86 -1.18 -23.81 6.30 -5.81 -31.60 -27.80 -33.21 -4.17 44.37 6.06 22.22 -15.09 13.88 14.50 44.28 -1.95 0 0 0 18.08 -6.54 13.72 -17.26 -24.04 -10.97 32.64 -23.40 -18.76 0 0 0 -60.34 -37.97 -73.37 33.54 -51.35 25.74 -7.62 -3.85 41.79 0 0 0 -10.55 -25.14 -1.89 
1.02 -2.87 -58.74 -2.51 15.11 -3.64 41.66 -52.34 37.19 2.99 39.82 -1.30 -24.19 9.52 -11.05 -33.16 -26.16 -36.41 -4.11 43.63 5.89 23.50 -13.12 15.20 14.52 44.48 -0.20 0 0 0 17.57 -6.75 13.71 -17.66 -24.68 -11.19 31.64 -22.51 -16.65 0 0 0 -60.35 -39.21 -73.17 35.20 -52.15 27.36 -5.02 -1.19 45.89 0 0 0 -9.87 -25.27 -1.96 
0.38 -3.62 -58.79 -4.17 13.17 -2.67 43.27 -54.07 37.86 2.90 40.20 -1.43 -24.65 11.14 -13.38 -34.64 -23.17 -38.58 -4.98 43.66 6.32 24.20 -13.52 16.02 13.78 45.97 2.17 0 0 0 17.44 -7.70 13.93 -18.16 -25.47 -11.31 30.64 -20.80 -14.42 0 0 0 -57.94 -41.91 -69.85 32.79 -49.51 25.91 -3.93 0.35 46.94 0 0 0 -9.17 -25.26 -2.27 
-0.26 -4.68 -58.80 -5.05 10.48 -2.26 42.92 -54.75 36.47 2.93 40.80 -1.72 -23.74 12.53 -13.55 -35.41 -19.59 -38.84 -4.75 43.98 5.96 24.67 -16.13 16.54 11.32 48.24 5.96 0 0 0 17.91 -9.44 14.29 -18.63 -26.24 -11.25 29.14 -18.12 -11.91 0 0 0 -53.29 -46.26 -62.48 26.54 -45.39 21.20 -3.47 1.14 46.93 0 0 0 -8.51 -25.41 -3.13 
-0.86 -5.78 -58.81 -5.77 7.65 -2.08 41.70 -54.78 33.94 3.05 41.57 -2.06 -23.07 13.38 -13.41 -35.75 -16.29 -39.01 -4.84 44.70 5.99 26.33 -17.91 18.68 8.06 50.74 10.46 0 0 0 18.45 -11.53 14.59 -19.02 -27.00 -11.04 27.31 -15.32 -9.81 0 0 0 -46.78 -49.76 -52.80 21.16 -39.89 17.44 -4.06 0.75 46.41 0 0 0 -7.91 -25.87 -4.27 
-1.49 -6.88 -58.82 -6.32 4.67 -1.89 39.69 -54.20 29.78 3.53 42.47 -2.78 -23.14 13.37 -12.79 -35.23 -13.29 -38.55 -4.82 47.22 6.47 27.01 -20.41 19.45 3.26 53.27 16.21 0 0 0 18.71 -13.93 15.72 -19.40 -27.87 -10.73 24.85 -12.35 -8.07 0 0 0 -36.94 -51.48 -40.30 16.05 -34.38 13.40 -7.40 -1.21 45.56 0 0 0 -6.84 -26.56 -5.11 
